<svg xmlns="http://www.w3.org/2000/svg" width="200" height="200" viewBox="0 0 200 200"><path fill="#FFF" d="M56.7 143.501h89.458v2.25H56.7z"/><g fill="#FFF"><path d="M63.577 116.237h3.246v1.635h-3.246z"/><path d="M63.085 115.466h4.229v.914h-4.229z"/><circle cx="65.2" cy="127.022" r="9.811"/><path d="M68.008 138.029v4.222h5.608v-7.959c-1.3 1.765-3.172 3.123-5.608 3.737zm-5.5.112c-2.453-.51-4.36-1.758-5.725-3.417v7.527h5.725v-4.11z"/></g><path fill="#FFF" d="M124.927 137.751h21.333v4.5h-21.333z"/><g fill="#FFF"><path d="M78.587 137.47h21.334v4.781H78.587z"/><circle cx="89.255" cy="130.241" r="2.583"/><path d="M81.219 85.303h16.07v9.625h-16.07zm0 11.291h16.07v12.001h-16.07zm0 39.792h16.07V124.47h-16.07v11.916zm8.036-8.729a2.583 2.583 0 1 1 0 5.167 2.584 2.584 0 1 1 0-5.167zm-8.036-17.396h16.07v12.541h-16.07zm16.07-33.344c0-3.279-2.488-6.043-5.869-6.889a8.847 8.847 0 0 0-4.489.036c-3.301.891-5.712 3.625-5.712 6.854v6.719h16.07v-6.72z"/></g><path fill="#FFF" d="M86.133 59.178h-13a4.505 4.505 0 0 0-4.5 4.5v53.148c.833.091 2 .425 3 1.591V63.678c0-.827.673-1.5 1.5-1.5h13c.827 0 1.5.673 1.5 1.5v5.167h3v-5.167c0-2.482-2.019-4.5-4.5-4.5z"/><g fill="#FFF"><path d="M127.987 107.834h-3V81.167c0-2.481 2.019-4.5 4.5-4.5h4.062c.827 0 1.5-.673 1.5-1.5V45.501c0-.827-.673-1.5-1.5-1.5H115.84c-.827 0-1.5.673-1.5 1.5v5.167h-3v-5.167c0-2.481 2.019-4.5 4.5-4.5h17.709c2.481 0 4.5 2.019 4.5 4.5v29.667c0 2.481-2.019 4.5-4.5 4.5h-4.062c-.827 0-1.5.673-1.5 1.5v26.666z"/><path d="M104.365 87.083h16.57V95.5h-16.57zm0 34.334h16.57v6.833h-16.57zm0-24.25h16.57v12.167h-16.57zm0-23.25h16.57v11.5h-16.57zm0 37.084h16.57v8.749h-16.57zm16.571-52.368c0-3.838-2.566-7.074-6.053-8.064a8.132 8.132 0 0 0-2.234-.319c-.832 0-1.637.128-2.395.36-3.402 1.042-5.889 4.244-5.889 8.023v3.451h16.57v-3.451zm-16.571 5.117h16.57v8.5h-16.57zm-2.383 66.22v12.281h21.334V129.97h-21.334zm10.668 9.416a3.416 3.416 0 1 1 0-6.833 3.416 3.416 0 1 1 0 6.833z"/></g><g fill="#FFF"><path d="M128.736 121.959h1.562v5.666h-1.562zm11.416.167h1.562v5.666h-1.562z"/><circle cx="129.508" cy="119.334" r="4.5"/><circle cx="140.883" cy="119.334" r="4.5"/><circle cx="129.508" cy="130.334" r="4.5"/><circle cx="140.883" cy="130.334" r="4.5"/><path d="M126.403 132.126h1.562v5.666h-1.562zm4.791.041h1.562v5.666h-1.562zm6.709-.041h1.562v5.666h-1.562zm4.791.041h1.562v5.666h-1.562zm-14.008-20.562h1.562v5.666h-1.562z"/><path d="M141.57 115.271h-1.5v-1.75c0-.543-.572-1.001-1.251-1.002l-18.562-.019.002-1.5 18.562.019c1.516.001 2.749 1.124 2.749 2.502v1.75z"/></g></svg>